# xmcd CD database file
#
# Track frame offsets:
#	150
#	26970
#	53310
#	79102
#	105590
#	128675
#	169970
#	192957
#	213890
#	237350
#	255825
#	276232
#	309945
#
# Disc length: 4432 seconds
#
# Revision: 3
# Processed by: cddbd v1.5.1PL0 Copyright (c) Steve Scherf et al.
# Submitted via: CDex 1.51
#
DISCID=a4114e0d
DTITLE=Various Artist - Fine Gold
DYEAR=1996
DGENRE=Jazz
TTITLE0=Sweet Dreams (4UIC) - Jhelisa
TTITLE1=Aria - D*Note
TTITLE2=Remembrance - Outside
TTITLE3=Can't Deal With This (Kid Loops Remix) - Cool Breeze
TTITLE4=Snakes' Pass - A.P.E
TTITLE5=The Golden Of Earthly Delights - D*Note
TTITLE6=If You Come With Me - Outside
TTITLE7=Friendly Pressure (Ben Young Remix) - Jhelisa
TTITLE8=Learn The Words - Mesh of Mind
TTITLE9=Take The Train (To 8th Avenue) - Brooklyn Funk Essentials
TTITLE10=A Major - D*Note
TTITLE11=Friendly Pressure (Paradise Revisited Mix) - Jhelisa
TTITLE12=Moodswings - Outside
EXTD=YEAR: 1996
EXTT0=
EXTT1=
EXTT2=
EXTT3=
EXTT4=
EXTT5=
EXTT6=
EXTT7=
EXTT8=
EXTT9=
EXTT10=
EXTT11=
EXTT12=
PLAYORDER=
